<svg width="200" height="200" viewBox="0 0 200 200" fill="none" xmlns="http://www.w3.org/2000/svg">
<path fill-rule="evenodd" clip-rule="evenodd" d="M170.678 114C164.134 148.175 134.083 174 98 174C61.9173 174 31.8664 148.175 25.3225 114H24.3044C30.8619 148.731 61.3632 175 98 175C134.637 175 165.138 148.731 171.696 114H170.678ZM166.6 114C160.114 145.951 131.865 170 98 170C64.1346 170 35.886 145.951 29.4003 114H30.4212C36.8913 145.395 64.6891 169 98 169C131.311 169 159.109 145.395 165.579 114H166.6ZM166.326 84.7143C159.353 53.4057 131.41 30 98 30C68.9101 30 43.9646 47.7445 33.397 73H34.4826C44.991 48.3105 69.474 31 98 31C130.855 31 158.346 53.9625 165.301 84.7143H166.326ZM170.419 84.7143C163.377 51.1794 133.629 26 98 26C66.6587 26 39.8682 45.4839 29.0802 73H28.0069C38.8462 44.9196 66.0969 25 98 25C134.183 25 164.382 50.6231 171.441 84.7143H170.419ZM156.035 84.7143C149.276 58.981 125.855 40 98 40C73.011 40 51.5899 55.2765 42.5664 77H43.6511C52.616 55.8424 73.5747 41 98 41C125.298 41 148.267 59.5394 155.001 84.7143H156.035ZM156.358 114C150.052 140.384 126.317 160 98 160C69.6835 160 45.9485 140.384 39.6421 114H40.671C46.9561 139.827 70.239 159 98 159C125.761 159 149.044 139.827 155.329 114H156.358Z" fill="black"/>
<rect x="10" y="89" width="181" height="20" rx="4" fill="#F8452C"/>
<line x1="169" y1="97.5" x2="185" y2="97.5" stroke="black"/>
<path d="M55.3008 93.8418H59.959C60.6621 93.8418 61.2715 93.916 61.7871 94.0645C62.3027 94.209 62.7305 94.4199 63.0703 94.6973C63.4102 94.9746 63.6621 95.3125 63.8262 95.7109C63.9941 96.1094 64.0781 96.5605 64.0781 97.0645C64.0781 97.4043 64.0371 97.7285 63.9551 98.0371C63.873 98.3418 63.7461 98.623 63.5742 98.8809C63.4062 99.1387 63.1934 99.3691 62.9355 99.5723C62.6777 99.7715 62.375 99.9375 62.0273 100.07L64.0195 103H61.7461L60.0234 100.398H59.9707L57.1582 100.393V103H55.3008V93.8418ZM60.0059 98.7871C60.3574 98.7871 60.6641 98.7461 60.9258 98.6641C61.1914 98.582 61.4121 98.4668 61.5879 98.3184C61.7676 98.1699 61.9004 97.9902 61.9863 97.7793C62.0762 97.5645 62.1211 97.3262 62.1211 97.0645C62.1211 96.5527 61.9453 96.1582 61.5938 95.8809C61.2422 95.5996 60.7129 95.459 60.0059 95.459H57.1582V98.7871H60.0059ZM65.5612 93.8418H73.3601V95.4707H67.4187V97.2988H72.6804V98.8281H67.4187V101.377H73.4831V103H65.5612V93.8418ZM75.2534 100.275C75.5854 100.463 75.9213 100.633 76.2612 100.785C76.6049 100.934 76.9604 101.061 77.3276 101.166C77.6948 101.268 78.0795 101.346 78.4819 101.4C78.8881 101.455 79.3198 101.482 79.7768 101.482C80.3276 101.482 80.7963 101.447 81.183 101.377C81.5698 101.303 81.8842 101.203 82.1264 101.078C82.3725 100.949 82.5502 100.797 82.6596 100.621C82.7729 100.445 82.8295 100.254 82.8295 100.047C82.8295 99.7148 82.6909 99.4531 82.4135 99.2617C82.1362 99.0664 81.7084 98.9688 81.1303 98.9688C80.8764 98.9688 80.6088 98.9863 80.3276 99.0215C80.0463 99.0527 79.7612 99.0879 79.4721 99.127C79.187 99.166 78.9037 99.2031 78.6225 99.2383C78.3452 99.2695 78.0834 99.2852 77.8373 99.2852C77.4272 99.2852 77.0327 99.2324 76.6537 99.127C76.2787 99.0215 75.9448 98.8633 75.6518 98.6523C75.3627 98.4414 75.1323 98.1777 74.9604 97.8613C74.7885 97.5449 74.7026 97.1758 74.7026 96.7539C74.7026 96.5039 74.7358 96.2559 74.8022 96.0098C74.8725 95.7637 74.9819 95.5293 75.1303 95.3066C75.2827 95.0801 75.478 94.8711 75.7162 94.6797C75.9545 94.4844 76.2416 94.3164 76.5776 94.1758C76.9174 94.0352 77.308 93.9258 77.7495 93.8477C78.1948 93.7656 78.7006 93.7246 79.267 93.7246C79.6772 93.7246 80.0893 93.748 80.5034 93.7949C80.9174 93.8379 81.3198 93.9004 81.7104 93.9824C82.1049 94.0645 82.4838 94.1641 82.8471 94.2812C83.2104 94.3945 83.5483 94.5215 83.8608 94.6621L83.0463 96.1621C82.7885 96.0488 82.5112 95.9453 82.2143 95.8516C81.9174 95.7539 81.6069 95.6699 81.2827 95.5996C80.9584 95.5293 80.6225 95.4746 80.2748 95.4355C79.9311 95.3926 79.5795 95.3711 79.2202 95.3711C78.7084 95.3711 78.2866 95.4082 77.9545 95.4824C77.6264 95.5566 77.3647 95.6523 77.1694 95.7695C76.9741 95.8828 76.8373 96.0117 76.7592 96.1562C76.685 96.2969 76.6479 96.4375 76.6479 96.5781C76.6479 96.8516 76.7709 97.0762 77.017 97.252C77.2631 97.4238 77.6381 97.5098 78.142 97.5098C78.3452 97.5098 78.5776 97.4961 78.8393 97.4688C79.1049 97.4375 79.3823 97.4043 79.6713 97.3691C79.9643 97.334 80.2612 97.3027 80.562 97.2754C80.8666 97.2441 81.1616 97.2285 81.4467 97.2285C81.9858 97.2285 82.4623 97.2891 82.8764 97.4102C83.2944 97.5312 83.644 97.7051 83.9252 97.9316C84.2065 98.1543 84.4194 98.4258 84.5639 98.7461C84.7084 99.0625 84.7807 99.418 84.7807 99.8125C84.7807 100.34 84.6577 100.811 84.4116 101.225C84.1694 101.635 83.8217 101.982 83.3686 102.268C82.9194 102.549 82.3764 102.764 81.7397 102.912C81.103 103.057 80.394 103.129 79.6127 103.129C79.0971 103.129 78.5932 103.096 78.101 103.029C77.6088 102.967 77.1362 102.877 76.683 102.76C76.2338 102.639 75.8041 102.496 75.394 102.332C74.9877 102.164 74.6108 101.98 74.2631 101.781L75.2534 100.275ZM88.8654 95.4707H85.4845V93.8418H94.1037V95.4707H90.7228V103H88.8654V95.4707ZM98.493 93.8418H100.462L104.891 103H102.94L102.208 101.459H96.8583L96.1493 103H94.1923L98.493 93.8418ZM101.475 99.9297L99.495 95.7695L97.5673 99.9297H101.475ZM105.25 93.8418H107.107V98.8867C107.107 99.3008 107.164 99.6699 107.277 99.9941C107.39 100.314 107.558 100.586 107.781 100.809C108.007 101.031 108.287 101.201 108.619 101.318C108.951 101.432 109.338 101.488 109.779 101.488C110.216 101.488 110.601 101.432 110.933 101.318C111.269 101.201 111.548 101.031 111.771 100.809C111.998 100.586 112.168 100.314 112.281 99.9941C112.394 99.6699 112.451 99.3008 112.451 98.8867V93.8418H114.308V99.1094C114.308 99.7109 114.207 100.258 114.004 100.75C113.8 101.242 113.505 101.664 113.119 102.016C112.732 102.367 112.257 102.639 111.695 102.83C111.136 103.021 110.498 103.117 109.779 103.117C109.06 103.117 108.42 103.021 107.857 102.83C107.298 102.639 106.826 102.367 106.439 102.016C106.052 101.664 105.757 101.242 105.554 100.75C105.351 100.258 105.25 99.7109 105.25 99.1094V93.8418ZM115.856 93.8418H120.514C121.217 93.8418 121.826 93.916 122.342 94.0645C122.858 94.209 123.285 94.4199 123.625 94.6973C123.965 94.9746 124.217 95.3125 124.381 95.7109C124.549 96.1094 124.633 96.5605 124.633 97.0645C124.633 97.4043 124.592 97.7285 124.51 98.0371C124.428 98.3418 124.301 98.623 124.129 98.8809C123.961 99.1387 123.748 99.3691 123.491 99.5723C123.233 99.7715 122.93 99.9375 122.582 100.07L124.575 103H122.301L120.578 100.398H120.526L117.713 100.393V103H115.856V93.8418ZM120.561 98.7871C120.912 98.7871 121.219 98.7461 121.481 98.6641C121.746 98.582 121.967 98.4668 122.143 98.3184C122.323 98.1699 122.455 97.9902 122.541 97.7793C122.631 97.5645 122.676 97.3262 122.676 97.0645C122.676 96.5527 122.5 96.1582 122.149 95.8809C121.797 95.5996 121.268 95.459 120.561 95.459H117.713V98.7871H120.561ZM129.239 93.8418H131.208L135.638 103H133.687L132.954 101.459H127.605L126.896 103H124.939L129.239 93.8418ZM132.222 99.9297L130.241 95.7695L128.314 99.9297H132.222ZM136.33 93.8418H138.187L143.894 96.8301V93.8418H145.752V103H143.894V98.7988L138.187 95.8281V103H136.33V93.8418ZM150.381 95.4707H147V93.8418H155.62V95.4707H152.239V103H150.381V95.4707ZM156.886 93.8418H164.685V95.4707H158.743V97.2988H164.005V98.8281H158.743V101.377H164.808V103H156.886V93.8418Z" fill="black"/>
<path d="M36.084 94.3682H37.6318V100.643H42.0703V102H36.084V94.3682ZM43.1201 99.0996C43.1201 98.709 43.1999 98.3363 43.3594 97.9814C43.5189 97.6234 43.7484 97.3076 44.0479 97.0342C44.3473 96.7607 44.7135 96.5426 45.1465 96.3799C45.5827 96.2171 46.0775 96.1357 46.6309 96.1357C47.181 96.1357 47.6758 96.2188 48.1152 96.3848C48.5579 96.5475 48.9323 96.7721 49.2383 97.0586C49.5475 97.3451 49.7835 97.682 49.9463 98.0693C50.1123 98.4567 50.1953 98.8717 50.1953 99.3145C50.1953 99.3698 50.1937 99.43 50.1904 99.4951C50.1904 99.557 50.1872 99.6139 50.1807 99.666H44.7314C44.7933 99.8385 44.8926 99.9964 45.0293 100.14C45.1693 100.283 45.3434 100.407 45.5518 100.511C45.7601 100.615 46.001 100.696 46.2744 100.755C46.5479 100.81 46.8506 100.838 47.1826 100.838C47.5146 100.838 47.8451 100.804 48.1738 100.735C48.5026 100.664 48.8167 100.574 49.1162 100.467L49.6045 101.57C49.4157 101.658 49.2236 101.736 49.0283 101.805C48.8363 101.87 48.6344 101.925 48.4229 101.971C48.2145 102.013 47.9948 102.046 47.7637 102.068C47.5358 102.091 47.2949 102.103 47.041 102.103C46.3932 102.103 45.8252 102.024 45.3369 101.868C44.8486 101.712 44.4401 101.499 44.1113 101.229C43.7826 100.958 43.5352 100.641 43.3691 100.276C43.2031 99.9118 43.1201 99.5195 43.1201 99.0996ZM48.6621 98.5381C48.61 98.3786 48.5286 98.2305 48.418 98.0938C48.3105 97.9538 48.1755 97.8333 48.0127 97.7324C47.8499 97.6283 47.6611 97.5469 47.4463 97.4883C47.2314 97.4297 46.9954 97.4004 46.7383 97.4004C46.4648 97.4004 46.2158 97.4313 45.9912 97.4932C45.7666 97.555 45.5697 97.638 45.4004 97.7422C45.2311 97.8464 45.0895 97.9668 44.9756 98.1035C44.8649 98.2402 44.7835 98.3851 44.7314 98.5381H48.6621Z" fill="black"/>
<line x1="16" y1="97.5" x2="32" y2="97.5" stroke="black"/>
<path d="M18.472 78.068C17.888 79.468 17.3 80.856 16.708 82.232C16.124 83.608 15.54 84.992 14.956 86.384C14.372 84.992 13.784 83.608 13.192 82.232C12.6 80.856 12.012 79.468 11.428 78.068H10.42V77.6H12.832V78.068H11.932C12.42 79.228 12.904 80.38 13.384 81.524C13.872 82.66 14.36 83.8 14.848 84.944L14.956 85.292L15.064 84.944C15.552 83.8 16.036 82.66 16.516 81.524C17.004 80.38 17.488 79.228 17.968 78.068H17.14V77.6H19.552V78.068H18.472ZM26.0087 86H24.6767V85.508C24.6767 85.412 24.6767 85.324 24.6767 85.244C24.6767 85.156 24.6767 85.06 24.6767 84.956C24.6207 85.1 24.5327 85.24 24.4127 85.376C24.3007 85.504 24.1647 85.62 24.0047 85.724C23.8367 85.836 23.6447 85.924 23.4287 85.988C23.2207 86.052 22.9967 86.084 22.7567 86.084C22.4207 86.084 22.1087 86.024 21.8207 85.904C21.5407 85.784 21.2927 85.616 21.0767 85.4C20.8607 85.184 20.6927 84.936 20.5727 84.656C20.4527 84.376 20.3927 84.072 20.3927 83.744C20.3927 83.432 20.4527 83.132 20.5727 82.844C20.6927 82.556 20.8607 82.304 21.0767 82.088C21.2927 81.88 21.5407 81.716 21.8207 81.596C22.1087 81.468 22.4207 81.404 22.7567 81.404C23.2287 81.404 23.6327 81.52 23.9687 81.752C24.3047 81.976 24.5407 82.244 24.6767 82.556C24.6767 82.388 24.6807 82.216 24.6887 82.04C24.6967 81.856 24.7087 81.676 24.7247 81.5H25.1207V85.532H26.0087V86ZM22.7567 81.884C22.4847 81.884 22.2327 81.932 22.0007 82.028C21.7687 82.124 21.5727 82.26 21.4127 82.436C21.2447 82.604 21.1127 82.8 21.0167 83.024C20.9287 83.248 20.8847 83.488 20.8847 83.744C20.8847 84.016 20.9367 84.268 21.0407 84.5C21.1447 84.732 21.2887 84.932 21.4727 85.1C21.6407 85.26 21.8327 85.384 22.0487 85.472C22.2647 85.56 22.5007 85.604 22.7567 85.604C23.0127 85.604 23.2527 85.56 23.4767 85.472C23.7007 85.376 23.8967 85.244 24.0647 85.076C24.2407 84.908 24.3767 84.712 24.4727 84.488C24.5767 84.256 24.6287 84.008 24.6287 83.744C24.6287 83.48 24.5767 83.236 24.4727 83.012C24.3767 82.78 24.2447 82.58 24.0767 82.412C23.9007 82.244 23.7007 82.116 23.4767 82.028C23.2527 81.932 23.0127 81.884 22.7567 81.884ZM24.2567 79.904C24.2567 80.016 24.2167 80.112 24.1367 80.192C24.0567 80.264 23.9687 80.3 23.8727 80.3C23.7687 80.3 23.6767 80.264 23.5967 80.192C23.5167 80.112 23.4767 80.016 23.4767 79.904C23.4767 79.792 23.5167 79.7 23.5967 79.628C23.6767 79.548 23.7687 79.508 23.8727 79.508C23.9687 79.508 24.0567 79.548 24.1367 79.628C24.2167 79.7 24.2567 79.792 24.2567 79.904ZM22.2767 79.904C22.2767 80.016 22.2367 80.112 22.1567 80.192C22.0767 80.264 21.9847 80.3 21.8807 80.3C21.7847 80.3 21.6967 80.264 21.6167 80.192C21.5367 80.112 21.4967 80.016 21.4967 79.904C21.4967 79.792 21.5367 79.7 21.6167 79.628C21.6967 79.548 21.7847 79.508 21.8807 79.508C21.9847 79.508 22.0767 79.548 22.1567 79.628C22.2367 79.7 22.2767 79.792 22.2767 79.904ZM29.1657 86H26.8497V85.532H27.7377V77.468H26.8857V77H28.2297V85.532H29.1657V86ZM30.002 86V85.532H30.89V77.468H30.038V77H31.382V83.72L33.254 81.968H32.522V81.5H34.742V81.968H33.866C33.626 82.208 33.402 82.428 33.194 82.628C32.994 82.82 32.766 83.036 32.51 83.276C32.782 83.66 33.054 84.04 33.326 84.416C33.598 84.784 33.874 85.156 34.154 85.532H35.198V86H32.978V85.532H33.566C33.326 85.204 33.086 84.884 32.846 84.572C32.606 84.252 32.374 83.928 32.15 83.6L31.382 84.332V85.532H32.318V86H30.002ZM40.0932 85.4C39.8772 85.616 39.6212 85.784 39.3252 85.904C39.0372 86.024 38.7292 86.084 38.4012 86.084C38.0652 86.084 37.7532 86.024 37.4652 85.904C37.1852 85.784 36.9412 85.616 36.7332 85.4C36.5172 85.192 36.3492 84.948 36.2292 84.668C36.1092 84.38 36.0492 84.072 36.0492 83.744C36.0492 83.424 36.1092 83.12 36.2292 82.832C36.3492 82.544 36.5172 82.292 36.7332 82.076C36.9412 81.868 37.1892 81.704 37.4772 81.584C37.7652 81.456 38.0732 81.392 38.4012 81.392C38.7292 81.392 39.0372 81.456 39.3252 81.584C39.6212 81.704 39.8772 81.868 40.0932 82.076C40.3012 82.292 40.4652 82.544 40.5852 82.832C40.7132 83.12 40.7772 83.424 40.7772 83.744C40.7772 84.072 40.7132 84.376 40.5852 84.656C40.4652 84.936 40.3012 85.184 40.0932 85.4ZM37.0812 85.052C37.2492 85.228 37.4452 85.364 37.6692 85.46C37.8932 85.556 38.1332 85.604 38.3892 85.604C38.6452 85.604 38.8852 85.556 39.1092 85.46C39.3412 85.364 39.5412 85.228 39.7092 85.052C39.8852 84.892 40.0212 84.7 40.1172 84.476C40.2132 84.252 40.2612 84.008 40.2612 83.744C40.2612 83.496 40.2132 83.26 40.1172 83.036C40.0212 82.804 39.8852 82.6 39.7092 82.424C39.5412 82.256 39.3412 82.124 39.1092 82.028C38.8852 81.932 38.6452 81.884 38.3892 81.884C38.1332 81.884 37.8932 81.932 37.6692 82.028C37.4452 82.124 37.2492 82.256 37.0812 82.424C36.9132 82.6 36.7812 82.8 36.6852 83.024C36.5892 83.248 36.5412 83.488 36.5412 83.744C36.5412 84.008 36.5892 84.252 36.6852 84.476C36.7812 84.7 36.9132 84.892 37.0812 85.052ZM43.9313 86H41.6153V85.532H42.5513V81.968H41.6873V81.5H42.9473L42.9593 81.932C42.9673 82.068 42.9753 82.192 42.9833 82.304C42.9913 82.408 42.9993 82.528 43.0073 82.664C43.1673 82.288 43.4193 81.988 43.7633 81.764C44.1153 81.532 44.5193 81.412 44.9753 81.404C45.3833 81.404 45.7153 81.516 45.9713 81.74C46.2273 81.956 46.3753 82.244 46.4153 82.604C46.5913 82.244 46.8473 81.956 47.1833 81.74C47.5273 81.524 47.9193 81.412 48.3593 81.404C48.8073 81.404 49.1553 81.528 49.4033 81.776C49.6593 82.024 49.7953 82.348 49.8113 82.748V85.532H50.6993V86H48.3953V85.532H49.3193V82.88C49.3033 82.616 49.2073 82.392 49.0313 82.208C48.8633 82.016 48.6113 81.912 48.2753 81.896C48.0353 81.896 47.8033 81.936 47.5793 82.016C47.3633 82.096 47.1713 82.204 47.0033 82.34C46.8353 82.484 46.6993 82.656 46.5953 82.856C46.4913 83.048 46.4353 83.26 46.4273 83.492V85.532H47.3153V86H44.9993V85.532H45.9353V82.88C45.9193 82.616 45.8233 82.392 45.6473 82.208C45.4793 82.016 45.2273 81.912 44.8913 81.896C44.6433 81.896 44.4073 81.936 44.1833 82.016C43.9593 82.096 43.7673 82.208 43.6073 82.352C43.4313 82.504 43.2913 82.68 43.1873 82.88C43.0913 83.08 43.0433 83.3 43.0433 83.54V85.532H43.9313V86ZM53.8571 86H51.5411V85.532H52.4771V81.968H51.6131V81.5H52.8731L52.8851 81.932C52.8931 82.068 52.9011 82.192 52.9091 82.304C52.9171 82.408 52.9251 82.528 52.9331 82.664C53.0931 82.288 53.3491 81.984 53.7011 81.752C54.0531 81.52 54.4531 81.404 54.9011 81.404C55.3411 81.404 55.6891 81.528 55.9451 81.776C56.2011 82.024 56.3371 82.348 56.3531 82.748V85.532H57.2411V86H54.9251V85.532H55.8611V82.88C55.8451 82.616 55.7491 82.392 55.5731 82.208C55.4051 82.016 55.1531 81.912 54.8171 81.896C54.5691 81.896 54.3331 81.936 54.1091 82.016C53.8851 82.096 53.6931 82.208 53.5331 82.352C53.3571 82.504 53.2171 82.68 53.1131 82.88C53.0171 83.08 52.9691 83.3 52.9691 83.54V85.532H53.8571V86ZM63.6962 86H62.3642V85.508C62.3642 85.412 62.3642 85.324 62.3642 85.244C62.3642 85.156 62.3642 85.06 62.3642 84.956C62.3082 85.1 62.2202 85.24 62.1002 85.376C61.9882 85.504 61.8522 85.62 61.6922 85.724C61.5242 85.836 61.3322 85.924 61.1162 85.988C60.9082 86.052 60.6842 86.084 60.4442 86.084C60.1082 86.084 59.7962 86.024 59.5082 85.904C59.2282 85.784 58.9802 85.616 58.7642 85.4C58.5482 85.184 58.3802 84.936 58.2602 84.656C58.1402 84.376 58.0802 84.072 58.0802 83.744C58.0802 83.432 58.1402 83.132 58.2602 82.844C58.3802 82.556 58.5482 82.304 58.7642 82.088C58.9802 81.88 59.2282 81.716 59.5082 81.596C59.7962 81.468 60.1082 81.404 60.4442 81.404C60.9162 81.404 61.3202 81.52 61.6562 81.752C61.9922 81.976 62.2282 82.244 62.3642 82.556C62.3642 82.388 62.3682 82.216 62.3762 82.04C62.3842 81.856 62.3962 81.676 62.4122 81.5H62.8082V85.532H63.6962V86ZM60.4442 81.884C60.1722 81.884 59.9202 81.932 59.6882 82.028C59.4562 82.124 59.2602 82.26 59.1002 82.436C58.9322 82.604 58.8002 82.8 58.7042 83.024C58.6162 83.248 58.5722 83.488 58.5722 83.744C58.5722 84.016 58.6242 84.268 58.7282 84.5C58.8322 84.732 58.9762 84.932 59.1602 85.1C59.3282 85.26 59.5202 85.384 59.7362 85.472C59.9522 85.56 60.1882 85.604 60.4442 85.604C60.7002 85.604 60.9402 85.56 61.1642 85.472C61.3882 85.376 61.5842 85.244 61.7522 85.076C61.9282 84.908 62.0642 84.712 62.1602 84.488C62.2642 84.256 62.3162 84.008 62.3162 83.744C62.3162 83.48 62.2642 83.236 62.1602 83.012C62.0642 82.78 61.9322 82.58 61.7642 82.412C61.5882 82.244 61.3882 82.116 61.1642 82.028C60.9402 81.932 60.7002 81.884 60.4442 81.884ZM70.6548 86H69.1788V81.98H68.1348V81.5H69.1788V78.572H69.6708V81.5H71.0628V81.98H69.6708V85.532H70.6548V86ZM74.2243 86H71.9083V85.532H72.8323V81.968H71.9083V81.5H73.3243V85.532H74.2243V86ZM73.4803 79.904C73.4803 80.016 73.4403 80.112 73.3603 80.192C73.2803 80.264 73.1883 80.3 73.0843 80.3C72.9883 80.3 72.9003 80.264 72.8203 80.192C72.7403 80.112 72.7003 80.016 72.7003 79.904C72.7003 79.792 72.7403 79.7 72.8203 79.628C72.9003 79.548 72.9883 79.508 73.0843 79.508C73.1883 79.508 73.2803 79.548 73.3603 79.628C73.4403 79.7 73.4803 79.792 73.4803 79.904ZM77.3766 86H75.0606V85.532H75.9486V77.468H75.0966V77H76.4406V85.532H77.3766V86ZM80.529 86H78.213V85.532H79.101V77.468H78.249V77H79.593V85.532H80.529V86Z" fill="black"/>
</svg>
